#Comment line ignore any data following # character 
#Hierarchical Translation and Rotation (.htr) file 
[Header]	
#Header keywords are followed by a single value 
FileType HTR		#Single word string
DataType HTRS		#Translation followed by rotation and scale data
FileVersion 1		#integer
NumSegments 84		#integer
NumFrames 2		#integer
DataFrameRate 30		#integer, data frame rate in this file
EulerRotationOrder ZYX
CalibrationUnits mm
RotationUnits Degrees
GlobalAxisofGravity Y
BoneLengthAxis Y
ScaleFactor 1.00
[SegmentNames&Hierarchy]
#CHILD	PARENT
MASTER GLOBAL
root MASTER
chest root
L_mid_tent01 root
R_mid_tent01 root
spine01 root
Bip01_Neck chest
L_humerus chest
R_humerus chest
weapon_bone chest
Bip01_Head Bip01_Neck
eye_left_bone Bip01_Head
eye_right_bone Bip01_Head
L_forearm L_humerus
L_front_hand L_forearm
L_weapon_bone L_forearm
L_front_hand01_01 L_front_hand
L_front_hand02_01 L_front_hand
L_front_hand03_01 L_front_hand
L_front_hand01_02 L_front_hand01_01
L_front_hand02_02 L_front_hand02_01
L_front_hand03_02 L_front_hand03_01
R_forearm R_humerus
R_front_hand R_forearm
R_weapon_bone R_forearm
R_front_hand01_01 R_front_hand
R_front_hand02_01 R_front_hand
R_front_hand03_01 R_front_hand
R_front_hand01_02 R_front_hand01_01
R_front_hand02_02 R_front_hand02_01
R_front_hand03_02 R_front_hand03_01
null_rope01_connect L_mid_tent01
Rope1_Seg01 null_rope01_connect
Rope1_Seg02 Rope1_Seg01
Rope1_Seg03 Rope1_Seg02
Rope1_Seg04 Rope1_Seg03
Rope1_Seg05 Rope1_Seg04
Rope1_Seg06 Rope1_Seg05
Rope1_Seg07 Rope1_Seg06
Rope1_Seg09 Rope1_Seg07
L_mid_hand01 Rope1_Seg09
L_mid_hand02 Rope1_Seg09
L_mid_hand03 Rope1_Seg09
null_rope02_connect R_mid_tent01
Rope2_Seg01 null_rope02_connect
Rope2_Seg02 Rope2_Seg01
Rope2_Seg03 Rope2_Seg02
Rope2_Seg04 Rope2_Seg03
Rope2_Seg05 Rope2_Seg04
Rope2_Seg06 Rope2_Seg05
Rope2_Seg07 Rope2_Seg06
Rope2_Seg09 Rope2_Seg07
R_mid_hand01 Rope2_Seg09
R_mid_hand02 Rope2_Seg09
R_mid_hand03 Rope2_Seg09
spine02 spine01
spine03 spine02
pelvis spine03
null_rope03_connect pelvis
null_rope04_connect pelvis
Rope3_Seg01 null_rope03_connect
Rope3_Seg02 Rope3_Seg01
Rope3_Seg03 Rope3_Seg02
Rope3_Seg04 Rope3_Seg03
Rope3_Seg05 Rope3_Seg04
Rope3_Seg06 Rope3_Seg05
Rope3_Seg07 Rope3_Seg06
Rope3_Seg08 Rope3_Seg07
Rope3_Seg09 Rope3_Seg08
R_rear_hand01 Rope3_Seg09
R_rear_hand02 Rope3_Seg09
R_rear_hand03 Rope3_Seg09
Rope4_Seg01 null_rope04_connect
Rope4_Seg02 Rope4_Seg01
Rope4_Seg03 Rope4_Seg02
Rope4_Seg04 Rope4_Seg03
Rope4_Seg05 Rope4_Seg04
Rope4_Seg06 Rope4_Seg05
Rope4_Seg07 Rope4_Seg06
Rope4_Seg08 Rope4_Seg07
Rope4_Seg09 Rope4_Seg08
L_rear_hand01 Rope4_Seg09
L_rear_hand02 Rope4_Seg09
L_rear_hand03 Rope4_Seg09
[BasePosition]
#SegmentName Tx, Ty, Tz, Rx, Ry, Rz, BoneLength
MASTER 0.000000 0.000000 0.000000 -90.000000 0.000000 0.000000 10.000000 
root 0.000000 0.000000 0.000000 0.000000 0.000000 0.000000 10.000000 
chest 0.000000 0.000000 0.000000 0.000000 0.000000 0.000000 10.000000 
L_mid_tent01 0.000000 0.000000 0.000000 0.000000 0.000000 0.000000 10.000000 
R_mid_tent01 0.000000 0.000000 0.000000 0.000000 0.000000 0.000000 10.000000 
spine01 0.000000 0.000000 0.000000 0.000000 0.000000 0.000000 10.000000 
Bip01_Neck 0.000000 0.000000 0.000000 0.000000 0.000000 0.000000 10.000000 
L_humerus 0.000000 0.000000 0.000000 0.000000 0.000000 0.000000 10.000000 
R_humerus 0.000000 0.000000 0.000000 0.000000 0.000000 0.000000 10.000000 
weapon_bone 0.000000 0.000000 0.000000 0.000000 0.000000 0.000000 10.000000 
Bip01_Head 0.000000 0.000000 0.000000 0.000000 0.000000 0.000000 10.000000 
eye_left_bone 0.000000 0.000000 0.000000 0.000000 0.000000 0.000000 10.000000 
eye_right_bone 0.000000 0.000000 0.000000 0.000000 0.000000 0.000000 10.000000 
L_forearm 0.000000 0.000000 0.000000 0.000000 0.000000 0.000000 10.000000 
L_front_hand 0.000000 0.000000 0.000000 0.000000 0.000000 0.000000 10.000000 
L_weapon_bone 0.000000 0.000000 0.000000 0.000000 0.000000 0.000000 10.000000 
L_front_hand01_01 0.000000 0.000000 0.000000 0.000000 0.000000 0.000000 10.000000 
L_front_hand02_01 0.000000 0.000000 0.000000 0.000000 0.000000 0.000000 10.000000 
L_front_hand03_01 0.000000 0.000000 0.000000 0.000000 0.000000 0.000000 10.000000 
L_front_hand01_02 0.000000 0.000000 0.000000 0.000000 0.000000 0.000000 10.000000 
L_front_hand02_02 0.000000 0.000000 0.000000 0.000000 0.000000 0.000000 10.000000 
L_front_hand03_02 0.000000 0.000000 0.000000 0.000000 0.000000 0.000000 10.000000 
R_forearm 0.000000 0.000000 0.000000 0.000000 0.000000 0.000000 10.000000 
R_front_hand 0.000000 0.000000 0.000000 0.000000 0.000000 0.000000 10.000000 
R_weapon_bone 0.000000 0.000000 0.000000 0.000000 0.000000 0.000000 10.000000 
R_front_hand01_01 0.000000 0.000000 0.000000 0.000000 0.000000 0.000000 10.000000 
R_front_hand02_01 0.000000 0.000000 0.000000 0.000000 0.000000 0.000000 10.000000 
R_front_hand03_01 0.000000 0.000000 0.000000 0.000000 0.000000 0.000000 10.000000 
R_front_hand01_02 0.000000 0.000000 0.000000 0.000000 0.000000 0.000000 10.000000 
R_front_hand02_02 0.000000 0.000000 0.000000 0.000000 0.000000 0.000000 10.000000 
R_front_hand03_02 0.000000 0.000000 0.000000 0.000000 0.000000 0.000000 10.000000 
null_rope01_connect 0.000000 0.000000 0.000000 0.000000 0.000000 0.000000 10.000000 
Rope1_Seg01 0.000000 0.000000 0.000000 0.000000 0.000000 0.000000 10.000000 
Rope1_Seg02 0.000000 0.000000 0.000000 0.000000 0.000000 0.000000 10.000000 
Rope1_Seg03 0.000000 0.000000 0.000000 0.000000 0.000000 0.000000 10.000000 
Rope1_Seg04 0.000000 0.000000 0.000000 0.000000 0.000000 0.000000 10.000000 
Rope1_Seg05 0.000000 0.000000 0.000000 0.000000 0.000000 0.000000 10.000000 
Rope1_Seg06 0.000000 0.000000 0.000000 0.000000 0.000000 0.000000 10.000000 
Rope1_Seg07 0.000000 0.000000 0.000000 0.000000 0.000000 0.000000 10.000000 
Rope1_Seg09 0.000000 0.000000 0.000000 0.000000 0.000000 0.000000 10.000000 
L_mid_hand01 0.000000 0.000000 0.000000 0.000000 0.000000 0.000000 10.000000 
L_mid_hand02 0.000000 0.000000 0.000000 0.000000 0.000000 0.000000 10.000000 
L_mid_hand03 0.000000 0.000000 0.000000 0.000000 0.000000 0.000000 10.000000 
null_rope02_connect 0.000000 0.000000 0.000000 0.000000 0.000000 0.000000 10.000000 
Rope2_Seg01 0.000000 0.000000 0.000000 0.000000 0.000000 0.000000 10.000000 
Rope2_Seg02 0.000000 0.000000 0.000000 0.000000 0.000000 0.000000 10.000000 
Rope2_Seg03 0.000000 0.000000 0.000000 0.000000 0.000000 0.000000 10.000000 
Rope2_Seg04 0.000000 0.000000 0.000000 0.000000 0.000000 0.000000 10.000000 
Rope2_Seg05 0.000000 0.000000 0.000000 0.000000 0.000000 0.000000 10.000000 
Rope2_Seg06 0.000000 0.000000 0.000000 0.000000 0.000000 0.000000 10.000000 
Rope2_Seg07 0.000000 0.000000 0.000000 0.000000 0.000000 0.000000 10.000000 
Rope2_Seg09 0.000000 0.000000 0.000000 0.000000 0.000000 0.000000 10.000000 
R_mid_hand01 0.000000 0.000000 0.000000 0.000000 0.000000 0.000000 10.000000 
R_mid_hand02 0.000000 0.000000 0.000000 0.000000 0.000000 0.000000 10.000000 
R_mid_hand03 0.000000 0.000000 0.000000 0.000000 0.000000 0.000000 10.000000 
spine02 0.000000 0.000000 0.000000 0.000000 0.000000 0.000000 10.000000 
spine03 0.000000 0.000000 0.000000 0.000000 0.000000 0.000000 10.000000 
pelvis 0.000000 0.000000 0.000000 0.000000 0.000000 0.000000 10.000000 
null_rope03_connect 0.000000 0.000000 0.000000 0.000000 0.000000 0.000000 10.000000 
null_rope04_connect 0.000000 0.000000 0.000000 0.000000 0.000000 0.000000 10.000000 
Rope3_Seg01 0.000000 0.000000 0.000000 0.000000 0.000000 0.000000 10.000000 
Rope3_Seg02 0.000000 0.000000 0.000000 0.000000 0.000000 0.000000 10.000000 
Rope3_Seg03 0.000000 0.000000 0.000000 0.000000 0.000000 0.000000 10.000000 
Rope3_Seg04 0.000000 0.000000 0.000000 0.000000 0.000000 0.000000 10.000000 
Rope3_Seg05 0.000000 0.000000 0.000000 0.000000 0.000000 0.000000 10.000000 
Rope3_Seg06 0.000000 0.000000 0.000000 0.000000 0.000000 0.000000 10.000000 
Rope3_Seg07 0.000000 0.000000 0.000000 0.000000 0.000000 0.000000 10.000000 
Rope3_Seg08 0.000000 0.000000 0.000000 0.000000 0.000000 0.000000 10.000000 
Rope3_Seg09 0.000000 0.000000 0.000000 0.000000 0.000000 0.000000 10.000000 
R_rear_hand01 0.000000 0.000000 0.000000 0.000000 0.000000 0.000000 10.000000 
R_rear_hand02 0.000000 0.000000 0.000000 0.000000 0.000000 0.000000 10.000000 
R_rear_hand03 0.000000 0.000000 0.000000 0.000000 0.000000 0.000000 10.000000 
Rope4_Seg01 0.000000 0.000000 0.000000 0.000000 0.000000 0.000000 10.000000 
Rope4_Seg02 0.000000 0.000000 0.000000 0.000000 0.000000 0.000000 10.000000 
Rope4_Seg03 0.000000 0.000000 0.000000 0.000000 0.000000 0.000000 10.000000 
Rope4_Seg04 0.000000 0.000000 0.000000 0.000000 0.000000 0.000000 10.000000 
Rope4_Seg05 0.000000 0.000000 0.000000 0.000000 0.000000 0.000000 10.000000 
Rope4_Seg06 0.000000 0.000000 0.000000 0.000000 0.000000 0.000000 10.000000 
Rope4_Seg07 0.000000 0.000000 0.000000 0.000000 0.000000 0.000000 10.000000 
Rope4_Seg08 0.000000 0.000000 0.000000 0.000000 0.000000 0.000000 10.000000 
Rope4_Seg09 0.000000 0.000000 0.000000 0.000000 0.000000 0.000000 10.000000 
L_rear_hand01 0.000000 0.000000 0.000000 0.000000 0.000000 0.000000 10.000000 
L_rear_hand02 0.000000 0.000000 0.000000 0.000000 0.000000 0.000000 10.000000 
L_rear_hand03 0.000000 0.000000 0.000000 0.000000 0.000000 0.000000 10.000000 
#Beginning of Data. Separated by tabs
#Fr	Tx	Ty	Tz	Rx	Ry	Rz	SF
[MASTER]
9 0.000000 0.000000 0.000000 0.001660 0.001660 0.001660 0.000000
10 0.000000 0.000000 0.000000 0.001660 0.001660 0.001660 0.000000
[root]
9 -37.149166 -49.144939 1500.759399 -110.634132 -22.664057 -95.595955 1502.023315
10 -37.882366 -51.398724 1502.621582 -113.813545 -23.256878 -94.941826 1503.977417
[chest]
9 -84.512650 -34.090519 0.000000 -3.979459 5.510240 146.941406 91.129311
10 -84.512650 -34.090519 0.000000 -5.424208 6.784791 148.079849 91.129311
[L_mid_tent01]
9 27.299139 22.179106 -249.918716 1.938522 6.137115 78.889893 252.381699
10 27.299143 22.179106 -249.918716 2.095419 -2.463950 78.687622 252.381699
[R_mid_tent01]
9 23.228794 24.509907 226.238495 165.517059 -4.792706 74.306015 228.744751
10 23.228794 24.509907 226.238495 165.777695 -0.481382 72.672539 228.744751
[spine01]
9 -0.361383 -0.195265 0.000000 0.002062 0.001122 32.879829 0.410763
10 -0.361383 -0.195265 0.000000 0.002062 0.001122 32.879829 0.410763
[Bip01_Neck]
9 165.484543 71.581718 0.000119 176.643677 -1.657967 43.431911 180.302734
10 165.484543 71.581718 0.000119 176.643677 -1.657967 43.431911 180.302734
[L_humerus]
9 -13.983130 -135.272980 -120.471481 169.099976 39.033062 -67.034538 181.680161
10 -13.983130 -135.272980 -120.471481 166.134033 31.109320 -66.365036 181.680161
[R_humerus]
9 -13.983309 -135.273102 125.287651 178.610718 -35.037636 -81.141388 184.909012
10 -13.983309 -135.273102 125.287651 -179.431961 -25.750111 -83.122574 184.909012
[weapon_bone]
9 235.964890 -300.705902 0.000000 0.000000 -89.951546 -128.212341 382.234833
10 235.964890 -300.705902 0.000000 0.000000 -89.951546 -128.212341 382.234833
[Bip01_Head]
9 213.444199 185.715530 11.776937 13.050546 2.915632 -43.897514 283.173767
10 213.444199 185.715530 11.776937 14.413537 2.937472 -43.899582 283.173767
[eye_left_bone]
9 -24.626970 125.451866 -64.772606 0.000000 -90.000000 -99.840431 143.318359
10 -24.626970 125.451866 -64.772606 0.000000 -90.000000 -99.840431 143.318359
[eye_right_bone]
9 -24.626970 125.451866 64.327362 0.000000 -89.965736 80.156380 143.117676
10 -24.626970 125.451866 64.327362 0.000000 -89.980217 80.156380 143.117676
[L_forearm]
9 322.776093 0.000000 -0.000119 0.000396 -0.002314 -109.419975 322.776093
10 322.776093 0.000000 -0.000119 0.000396 -0.002314 -109.419975 322.776093
[L_front_hand]
9 241.149185 -0.042021 -3.300071 -178.667953 -1.835447 -27.422350 241.171753
10 241.149185 -0.042021 -3.300071 -178.667953 -1.835447 -27.422350 241.171753
[L_weapon_bone]
9 156.183838 0.000000 0.000000 0.000014 0.000007 0.000001 156.183838
10 156.183838 0.000000 0.000000 0.000014 0.000007 0.000001 156.183838
[L_front_hand01_01]
9 86.095154 20.947098 -0.655860 -0.298084 -0.518635 67.679565 88.609184
10 86.095154 20.947098 -0.655860 -0.283527 -0.527600 66.297707 88.609184
[L_front_hand02_01]
9 86.935165 -11.437475 24.513514 143.833725 -55.908619 -48.913990 91.046425
10 86.935165 -11.437475 24.513514 142.224594 -55.075600 -46.960857 91.046425
[L_front_hand03_01]
9 86.637497 -14.123976 -20.424902 -144.057907 54.129478 -50.849678 90.126129
10 86.637497 -14.123976 -20.424902 -142.543610 53.302792 -48.973709 90.126129
[L_front_hand01_02]
9 71.020905 -0.000179 0.000030 0.000316 -0.002326 -105.470161 71.020905
10 71.020905 -0.000179 0.000030 0.000315 -0.002326 -105.449020 71.020905
[L_front_hand02_02]
9 71.020927 -0.000119 0.000060 0.000316 -0.002326 -105.470161 71.020927
10 71.020927 -0.000119 0.000060 0.000315 -0.002326 -105.449020 71.020927
[L_front_hand03_02]
9 71.020905 -0.000060 0.000060 0.000316 -0.002326 -105.470161 71.020905
10 71.020905 -0.000060 0.000060 0.000315 -0.002326 -105.449020 71.020905
[R_forearm]
9 322.776428 -0.000060 0.000030 0.202103 0.065158 -108.062805 322.776428
10 322.776428 -0.000060 0.000030 0.202103 0.065158 -108.062805 322.776428
[R_front_hand]
9 238.847015 -0.006795 2.210259 -2.635298 -10.645461 -26.312506 238.857239
10 238.847015 -0.006795 2.210259 -2.635298 -10.645461 -26.312506 238.857239
[R_weapon_bone]
9 155.664093 0.002503 -0.000030 0.003487 0.001180 -90.988930 155.664078
10 155.664093 0.002503 -0.000030 0.003487 0.001180 -90.988930 155.664078
[R_front_hand01_01]
9 87.624611 14.231146 22.918642 -144.529831 -56.246773 49.862965 91.683487
10 87.624611 14.231146 22.918642 -142.548325 -55.243759 47.459801 91.683487
[R_front_hand02_01]
9 89.356956 14.367283 -19.491137 145.090073 54.636795 52.351833 92.579636
10 89.356956 14.367283 -19.491137 143.200836 53.651726 50.025181 92.579636
[R_front_hand03_01]
9 87.286232 -22.307278 -0.143439 0.104902 -0.441124 -68.497849 90.091743
10 87.286232 -22.307278 -0.143439 0.094300 -0.445337 -66.818878 90.091743
[R_front_hand01_02]
9 71.020905 0.000060 0.000119 0.002323 -0.000334 106.381714 71.020905
10 71.020905 0.000060 0.000119 0.002323 -0.000334 106.381714 71.020905
[R_front_hand02_02]
9 71.020844 -0.000030 -0.000119 0.002323 -0.000334 106.381714 71.020836
10 71.020844 -0.000030 -0.000119 0.002323 -0.000334 106.381714 71.020836
[R_front_hand03_02]
9 71.020905 0.000000 0.000030 0.002323 -0.000334 106.381714 71.020905
10 71.020905 0.000000 0.000030 0.002323 -0.000334 106.381714 71.020905
[null_rope01_connect]
9 328.732483 0.000000 -0.000238 -141.659760 -60.407913 174.956024 328.732483
10 328.732483 0.000000 -0.000238 -142.238220 -66.272110 176.274628 328.732483
[Rope1_Seg01]
9 -0.000032 0.000027 0.000107 118.376167 15.451628 -161.217911 0.000115
10 -0.000032 0.000025 0.000102 128.587112 22.744787 -150.575485 0.000110
[Rope1_Seg02]
9 139.999863 -0.000179 0.000000 24.743799 2.449649 -20.973822 139.999863
10 139.999863 -0.000179 0.000000 18.412014 1.000522 -11.314133 139.999863
[Rope1_Seg03]
9 139.999924 0.000060 -0.000060 73.866150 -3.245877 -28.650848 139.999924
10 139.999924 0.000060 -0.000060 58.968830 -2.140195 -18.071249 139.999924
[Rope1_Seg04]
9 139.999924 -0.000060 -0.000119 -12.124692 1.200943 7.853510 139.999924
10 139.999924 -0.000060 -0.000119 15.973841 -7.410792 -0.564118 139.999924
[Rope1_Seg05]
9 139.999832 0.000119 -0.000060 -33.797573 16.957747 22.228926 139.999832
10 139.999832 0.000119 -0.000060 -43.042400 15.734304 9.574684 139.999832
[Rope1_Seg06]
9 139.999954 0.000119 -0.000060 -6.359353 -0.542608 11.040256 139.999954
10 139.999954 0.000119 -0.000060 -11.607502 1.681415 8.031114 139.999954
[Rope1_Seg07]
9 139.999985 0.000060 0.000000 -2.412901 -1.074417 6.057465 139.999985
10 139.999985 0.000060 0.000000 -4.464735 -0.142381 4.561903 139.999985
[Rope1_Seg09]
9 121.602913 0.000119 -0.000089 -89.793175 -1.359789 0.847147 121.602913
10 121.602913 0.000119 -0.000089 -89.793175 -1.359789 0.847147 121.602913
[L_mid_hand01]
9 103.859421 1.038730 8.195221 109.360252 -41.586876 -13.661042 104.187431
10 103.859421 1.038730 8.195221 110.239418 -44.215584 -14.952870 104.187431
[L_mid_hand02]
9 105.572853 -4.139662 -10.864139 -147.253464 32.046696 -38.928749 106.211075
10 105.572853 -4.139662 -10.864139 -148.783737 33.525715 -41.749332 106.211075
[L_mid_hand03]
9 104.641464 17.579376 -3.913581 -14.046333 12.575244 44.931114 106.179977
10 104.641464 17.579376 -3.913581 -13.422892 13.235847 47.719109 106.179977
[null_rope02_connect]
9 328.732849 0.000179 -0.000119 -3.677622 65.985359 141.333893 328.732849
10 328.732849 0.000179 -0.000119 3.914818 59.386345 147.547852 328.732849
[Rope2_Seg01]
9 0.000008 0.000107 0.000000 113.196892 45.795742 -114.647720 0.000107
10 0.000000 0.000106 0.000000 110.442352 44.965511 -118.047279 0.000106
[Rope2_Seg02]
9 139.999741 -0.000060 -0.000119 -1.954641 -7.793522 7.845161 139.999756
10 139.999741 -0.000060 -0.000119 -2.337445 -6.168985 8.999009 139.999756
[Rope2_Seg03]
9 140.000107 0.000030 0.000000 -0.684065 -8.082812 5.486121 140.000107
10 140.000107 0.000030 0.000000 -1.246144 -7.276237 8.434141 140.000107
[Rope2_Seg04]
9 139.999802 0.000000 -0.000060 -0.239800 -8.752540 3.348761 139.999802
10 139.999802 0.000000 -0.000060 -0.737436 -12.485335 7.929527 139.999802
[Rope2_Seg05]
9 139.999985 -0.000060 0.000119 0.290665 2.882521 3.616127 139.999985
10 139.999985 -0.000060 0.000119 1.004221 2.358423 4.450928 139.999985
[Rope2_Seg06]
9 139.999893 -0.000030 -0.000119 0.064323 16.064739 6.357244 139.999893
10 139.999893 -0.000030 -0.000119 0.750730 18.989687 2.439076 139.999893
[Rope2_Seg07]
9 139.999893 0.000060 -0.000060 -2.569680 15.203144 6.795093 139.999893
10 139.999893 0.000060 -0.000060 -1.676431 15.629823 2.143216 139.999893
[Rope2_Seg09]
9 121.338966 0.000089 -0.000060 33.793236 -1.359788 -0.847141 121.338966
10 121.338966 0.000089 -0.000060 33.793236 -1.359788 -0.847141 121.338966
[R_mid_hand01]
9 104.680779 11.144459 -10.335981 -34.395397 34.968506 42.666142 105.778534
10 104.680779 11.144459 -10.335981 -35.915806 33.394672 39.963581 105.778534
[R_mid_hand02]
9 104.070427 2.443552 8.231699 68.534218 -47.330879 16.661495 104.424065
10 104.070427 2.443552 8.231699 69.545181 -44.771027 15.251744 104.424065
[R_mid_hand03]
9 106.028137 -11.221827 -5.996406 -171.057114 13.096072 -52.505154 106.788818
10 106.028137 -11.221827 -5.996406 -170.436981 12.655030 -49.730145 106.788818
[spine02]
9 129.756927 0.001550 0.000119 0.360061 -4.044797 -12.915058 129.756927
10 129.756927 0.001550 0.000119 0.360061 -4.044797 -12.915058 129.756927
[spine03]
9 78.614067 0.081635 -4.899009 1.896495 3.831288 16.473045 78.766602
10 78.614067 0.081635 -4.899009 1.896495 3.831288 16.473045 78.766602
[pelvis]
9 169.435242 0.051022 0.000000 -0.060465 -0.180225 14.087930 169.435257
10 169.435242 0.051022 0.000000 -0.060465 -0.180225 14.087930 169.435257
[null_rope03_connect]
9 -1.257226 -2.466202 137.391083 -143.574097 -67.607002 -155.102112 137.418976
10 -1.257226 -2.466202 137.391083 -146.052063 -64.839485 -152.043716 137.418976
[null_rope04_connect]
9 -1.259640 -2.480268 -137.844437 -143.574097 -67.607002 -155.102112 137.872513
10 -1.259640 -2.480268 -137.844437 -146.052063 -64.839485 -152.043716 137.872513
[Rope3_Seg01]
9 0.000010 0.000027 -0.000107 -151.124924 29.812609 -116.396736 0.000111
10 0.000010 0.000025 -0.000102 -159.946564 32.377632 -126.073105 0.000105
[Rope3_Seg02]
9 139.999924 -0.000119 0.000060 1.923663 -6.204972 -12.964460 139.999924
10 139.999924 -0.000119 0.000060 1.492821 -1.306538 -4.448468 139.999924
[Rope3_Seg03]
9 139.999924 -0.000119 0.000119 10.451340 -19.422535 -59.167934 139.999924
10 139.999924 -0.000119 0.000119 4.603700 -4.006054 -16.984699 139.999924
[Rope3_Seg04]
9 139.999924 0.000119 0.000000 1.347452 -19.732084 -37.017071 139.999924
10 139.999924 0.000119 0.000000 18.418962 -25.684868 -80.360939 139.999924
[Rope3_Seg05]
9 139.999924 -0.000238 0.000060 93.719589 -21.559977 -5.875916 139.999924
10 139.999924 -0.000238 0.000060 44.357594 -33.921093 8.669298 139.999924
[Rope3_Seg06]
9 139.999893 -0.000119 -0.000060 26.026991 -5.369039 11.699115 139.999893
10 139.999893 -0.000119 -0.000060 11.051392 -7.142198 6.563159 139.999893
[Rope3_Seg07]
9 139.999771 0.000060 -0.000119 7.649698 0.008738 7.313416 139.999771
10 139.999771 0.000060 -0.000119 2.858949 -1.355918 1.857880 139.999771
[Rope3_Seg08]
9 139.999985 -0.000060 0.000000 2.219476 0.317452 2.342781 139.999985
10 139.999985 -0.000060 0.000000 0.535796 0.001652 0.001667 139.999985
[Rope3_Seg09]
9 90.185997 -0.000179 -0.000060 89.793228 -1.359877 -0.847183 90.185997
10 90.185997 -0.000179 -0.000060 89.793228 -1.359877 -0.847183 90.185997
[R_rear_hand01]
9 103.366196 -6.073594 -10.757982 -165.911041 20.457190 -43.716877 104.101845
10 103.366196 -6.073594 -10.757982 -165.062744 19.854712 -41.252724 104.101845
[R_rear_hand02]
9 100.509819 12.039542 -7.992327 -29.438202 26.424622 41.274059 101.543350
10 100.509819 12.039542 -7.992327 -30.438213 25.232857 38.978088 101.543350
[R_rear_hand03]
9 101.539970 5.215704 5.435467 82.044533 -44.284771 9.436423 101.819031
10 101.539970 5.215704 5.435467 82.343658 -41.918400 8.993859 101.819031
[Rope4_Seg01]
9 0.000010 0.000038 -0.000114 44.928150 15.473968 -118.464035 0.000121
10 0.000010 0.000038 -0.000114 36.966965 30.451754 -129.077042 0.000121
[Rope4_Seg02]
9 139.999985 0.000060 0.000119 8.314142 -34.175900 4.525854 139.999985
10 139.999985 0.000060 0.000119 3.600900 -13.873209 10.070698 139.999985
[Rope4_Seg03]
9 139.999924 0.000000 -0.000238 13.635110 -17.677338 6.245327 139.999924
10 139.999924 0.000000 -0.000238 8.181055 -15.548648 19.826277 139.999924
[Rope4_Seg04]
9 139.999985 0.000000 0.000119 11.131790 -9.510907 4.090369 139.999985
10 139.999985 0.000000 0.000119 7.094875 -14.124269 8.448693 139.999985
[Rope4_Seg05]
9 139.999802 -0.000060 -0.000119 16.899220 -10.369921 5.152593 139.999802
10 139.999802 -0.000060 -0.000119 3.254916 -20.401278 -8.266253 139.999802
[Rope4_Seg06]
9 139.999924 0.000000 0.000060 18.684769 -6.485291 6.906777 139.999924
10 139.999924 0.000000 0.000060 9.253031 -12.928651 -1.783030 139.999924
[Rope4_Seg07]
9 139.999802 0.000000 0.000000 15.058301 -2.999929 6.820937 139.999802
10 139.999802 0.000000 0.000000 12.063120 -7.500090 0.299544 139.999802
[Rope4_Seg08]
9 139.999924 0.000000 0.000119 5.601243 -0.576509 3.816668 139.999924
10 139.999924 0.000000 0.000119 3.841327 -2.059841 0.526492 139.999924
[Rope4_Seg09]
9 90.185791 0.000060 0.000060 -135.617828 2.228885 0.850567 90.185791
10 90.185791 0.000060 0.000060 -135.617828 2.228885 0.850567 90.185791
[L_rear_hand01]
9 101.696655 -8.392275 -7.654577 -29.187384 -26.706511 138.165146 102.329041
10 101.696655 -8.392275 -7.654577 -27.351406 -28.587906 134.210266 102.329041
[L_rear_hand02]
9 102.726799 -1.568258 5.773216 81.968048 44.855747 170.449921 102.900848
10 102.726799 -1.568258 5.773216 81.353462 48.791985 169.608459 102.900848
[L_rear_hand03]
9 104.552910 9.721220 -10.420293 -166.120255 -20.593422 -135.683456 105.519653
10 104.552910 9.721220 -10.420293 -167.608917 -21.500101 -131.535492 105.519653
